<svg width="145" height="34" viewBox="0 0 145 34" fill="none" xmlns="http://www.w3.org/2000/svg">
<path d="M94.3652 25.0506L90.1367 8.05121H94.4577L95.8103 15.0488C96.1947 17.0705 96.5649 19.2773 96.8496 20.9929H96.9066C97.1913 19.1421 97.6184 17.1133 98.074 14.999L99.6045 8.04409H103.89L105.314 15.2197C105.698 17.2058 105.997 19.0211 106.253 20.9004H106.31C106.588 19.0068 106.965 17.035 107.357 14.9919L108.802 8.04409H112.902L108.296 25.0434H103.94L102.416 17.7255C102.06 16.0241 101.783 14.4224 101.555 12.4932H101.505C101.206 14.4082 100.914 16.017 100.487 17.7326L98.7788 25.0363H94.351L94.3652 25.0506Z" fill="#14487F"/>
<path d="M116.767 20.6868L115.507 25.0506H111.336L116.782 8.05121H122.064L127.623 25.0506H123.274L121.9 20.6868H116.767ZM121.302 17.8251L120.192 14.216C119.885 13.2122 119.565 11.938 119.295 10.9414H119.238C118.974 11.938 118.704 13.2336 118.419 14.216L117.351 17.8251H121.302Z" fill="#14487F"/>
<path d="M145 16.38C145 21.9539 141.463 25.3282 136.245 25.3282C131.027 25.3282 127.837 21.5126 127.837 16.6648C127.837 11.817 131.269 7.77358 136.522 7.77358C141.776 7.77358 144.993 11.6746 144.993 16.38H145ZM132.109 16.5936C132.109 19.9251 133.753 22.2743 136.451 22.2743C139.149 22.2743 140.736 19.8183 140.736 16.5153C140.736 13.4543 139.213 10.8346 136.437 10.8346C133.66 10.8346 132.109 13.2905 132.109 16.6007V16.5936Z" fill="#14487F"/>
<path d="M38.8538 20.4234L37.6507 24.7943H33.6714L38.868 7.77358H43.908L49.2043 24.7943H45.0541L43.7443 20.4234H38.8467H38.8538ZM43.1748 17.5546L42.1141 13.9383C41.8223 12.9346 41.5233 11.6532 41.2599 10.6638H41.21C40.9609 11.6675 40.7046 12.956 40.4341 13.9455L39.4161 17.5617H43.1819L43.1748 17.5546Z" fill="#2060AD"/>
<path d="M50.8485 21.0855C51.8664 21.6336 53.4681 22.1533 55.1126 22.1533C56.878 22.1533 57.8176 21.42 57.8176 20.3024C57.8176 19.256 57.0061 18.6438 54.9702 17.9248C52.1298 16.9211 50.2719 15.3692 50.2719 12.8848C50.2719 9.98036 52.7065 7.77358 56.7071 7.77358C58.6505 7.77358 60.0529 8.15799 61.0566 8.62782L60.2024 11.7173C59.5261 11.397 58.3017 10.9058 56.6502 10.9058C54.9987 10.9058 54.1729 11.6817 54.1729 12.5502C54.1729 13.6322 55.1126 14.1092 57.3265 14.9421C60.3377 16.0668 61.7329 17.6329 61.7329 20.039C61.7329 22.8794 59.5546 25.3211 54.8705 25.3211C52.9414 25.3211 51.0122 24.7943 50.0654 24.2604L50.8414 21.0784L50.8485 21.0855Z" fill="#2060AD"/>
<path d="M73.1871 17.5973H66.9227V21.6478H73.9274V24.8014H63.0786V7.77358H73.5644V10.9271H66.9298V14.4722H73.1942V17.5973H73.1871Z" fill="#2060AD"/>
<path d="M75.4365 22.7156L83.5447 11.0482V10.9556H76.1769V7.76646H88.5349V9.9946L80.6047 21.5126V21.6051H88.663V24.7943H75.4436V22.7156H75.4365Z" fill="#2060AD"/>
<path d="M11.9949 20.1387C13.1623 19.7827 14.4152 19.5692 15.7179 19.5265V16.9709H11.5464C11.5891 18.0814 11.7386 19.1563 11.9949 20.1458V20.1387Z" fill="#2060AD"/>
<path d="M13.0413 9.86646C12.7707 10.3505 12.5287 10.8773 12.3223 11.4468C13.3758 11.7743 14.5219 11.9665 15.7107 12.0163V7.45324C14.7213 7.70239 13.7958 8.54239 13.0413 9.86646Z" fill="#2060AD"/>
<path d="M11.5464 15.7251H15.7179V13.2478C14.4081 13.198 13.1481 12.9844 11.9735 12.6285C11.7315 13.5966 11.5891 14.6431 11.5464 15.7322V15.7251Z" fill="#2060AD"/>
<path d="M11.1691 11.0197C11.3969 10.3932 11.6603 9.8024 11.9664 9.26138C12.3366 8.59934 12.7566 8.03697 13.2122 7.58138C11.7671 8.10104 10.4857 8.9624 9.46777 10.08C9.5176 10.1156 9.56743 10.1512 9.61727 10.1797C10.0942 10.5 10.6139 10.7848 11.1691 11.0268V11.0197Z" fill="#2060AD"/>
<path d="M22.3812 15.7251H25.6344C25.5205 13.9668 24.9154 12.3438 23.9544 10.9841C23.8548 11.0553 23.7551 11.1265 23.6554 11.1905C23.1073 11.5607 22.5093 11.881 21.8687 12.1587C22.1605 13.2692 22.3314 14.4794 22.3741 15.718L22.3812 15.7251Z" fill="#2060AD"/>
<path d="M10.8062 12.2014C10.1371 11.9166 9.50351 11.5821 8.92689 11.1976C8.84859 11.1478 8.77028 11.0909 8.6991 11.0339C7.75943 12.3793 7.16859 13.9882 7.05469 15.7251H10.315C10.3577 14.4936 10.5286 13.3048 10.8133 12.2014H10.8062Z" fill="#2060AD"/>
<path d="M10.3077 16.9638H7.04736C7.16126 18.7221 7.76635 20.3451 8.72737 21.7048C8.79144 21.6621 8.8555 21.6122 8.91957 21.5695C9.5033 21.178 10.1369 20.8434 10.8203 20.5587C10.5213 19.4339 10.3504 18.2238 10.3077 16.9638Z" fill="#2060AD"/>
<path d="M11.1979 21.7404C10.6355 21.9824 10.1016 22.2672 9.61752 22.5946C9.58193 22.616 9.54634 22.6445 9.51074 22.6658C10.5216 23.755 11.7887 24.6021 13.2124 25.1146C12.7569 24.659 12.344 24.0967 11.9667 23.4346C11.6748 22.915 11.4114 22.3455 11.1907 21.7404H11.1979Z" fill="#2060AD"/>
<path d="M13.0416 22.8224C13.7962 24.1536 14.7216 24.9865 15.7111 25.2356V20.7509C14.5365 20.8007 13.3975 20.9858 12.3511 21.3061C12.5504 21.8472 12.7782 22.3526 13.0416 22.8153V22.8224Z" fill="#2060AD"/>
<path d="M21.4772 21.776C21.2565 22.3668 21.0074 22.9221 20.7155 23.4346C20.3382 24.0967 19.9253 24.659 19.4697 25.1146C20.8792 24.6092 22.125 23.7763 23.1287 22.7085C23.0718 22.6729 23.0219 22.6302 22.965 22.5946C22.5094 22.2885 22.004 22.0109 21.4772 21.776Z" fill="#2060AD"/>
<path d="M20.324 21.3417C19.2775 21.0072 18.1314 20.815 16.9497 20.758V25.2499C17.9463 25.0079 18.886 24.1679 19.6477 22.8295C19.904 22.374 20.1317 21.8756 20.324 21.3489V21.3417Z" fill="#2060AD"/>
<path d="M21.8545 20.5943C22.5023 20.8719 23.1074 21.1994 23.6626 21.5695C23.7552 21.6265 23.8406 21.6906 23.926 21.7546C24.9084 20.3878 25.5206 18.7434 25.6416 16.9638H22.3884C22.3457 18.238 22.1677 19.4624 21.8616 20.5943H21.8545Z" fill="#2060AD"/>
<path d="M25.2641 30.0407C29.7346 27.1221 32.6889 22.0821 32.6889 16.3444C32.6889 7.31798 25.3709 0 16.3444 0C7.31798 0 0 7.31798 0 16.3444C0 23.6909 4.84781 29.9055 11.518 31.9628C13.3404 32.5821 18.6509 33.9774 28.9729 33.7852L28.9587 33.6713C27.4282 32.8099 26.154 31.5499 25.257 30.0407H25.2641ZM16.3444 27.9479C9.93765 27.9479 4.74103 22.7512 4.74103 16.3444C4.74103 9.93765 9.93765 4.74103 16.3444 4.74103C22.7512 4.74103 27.9479 9.93765 27.9479 16.3444C27.9479 22.7512 22.7512 27.9479 16.3444 27.9479Z" fill="#2060AD"/>
<path d="M21.5056 10.977C22.0252 10.7421 22.5164 10.4787 22.972 10.1726C23.0432 10.1227 23.1144 10.0729 23.1856 10.0231C22.1747 8.93392 20.9076 8.07968 19.4839 7.57425C19.9395 8.02985 20.3524 8.59222 20.7297 9.25426C21.0286 9.78104 21.292 10.3576 21.5127 10.977H21.5056Z" fill="#2060AD"/>
<path d="M19.6477 9.86646C18.886 8.52815 17.9463 7.68815 16.9497 7.44612V12.0163C18.1456 11.9593 19.2917 11.76 20.3524 11.4254C20.1531 10.8702 19.9182 10.3505 19.6477 9.87358V9.86646Z" fill="#2060AD"/>
<path d="M20.7084 12.6C19.5338 12.9702 18.2667 13.1909 16.9497 13.2478V15.7322H21.1426C21.0999 14.636 20.9575 13.5824 20.7084 12.6Z" fill="#2060AD"/>
<path d="M21.1426 16.9638H16.9497V19.5265C18.2595 19.5834 19.5267 19.797 20.6941 20.1672C20.9504 19.1705 21.107 18.0885 21.1497 16.9638H21.1426Z" fill="#2060AD"/>
</svg>
